HIERARCHY
ROOT RootJoint
{
    OFFSET   0.000000   0.000000   0.000000
    CHANNELS 6 Xposition Yposition Zposition Xrotation Yrotation Zrotation
    JOINT pelvis_lowerback
    {
        OFFSET   0.000000   0.093605   0.000000
        CHANNELS 3 Xrotation Yrotation Zrotation
        JOINT lowerback_torso
        {
            OFFSET   0.000000   0.100000   0.000000
            CHANNELS 3 Xrotation Yrotation Zrotation
            JOINT torso_head
            {
                OFFSET   0.000000   0.282350   0.000000
                CHANNELS 3 Xrotation Yrotation Zrotation
                End Site
                {
                    OFFSET   0.000000   0.192650   0.000000
                }
            }
            JOINT rTorso_Clavicle
            {
                OFFSET  -0.001000   0.157500   0.000000
                CHANNELS 3 Xrotation Yrotation Zrotation
                JOINT rShoulder
                {
                    OFFSET  -0.117647   0.000000   0.000000
                    CHANNELS 3 Xrotation Yrotation Zrotation
                    JOINT rElbow
                    {
                        OFFSET  -0.245000   0.000000   0.000000
                        CHANNELS 3 Xrotation Yrotation Zrotation
                        JOINT rWrist
                        {
                            OFFSET  -0.240000   0.000000   0.000000
                            CHANNELS 3 Xrotation Yrotation Zrotation
                            End Site
                            {
                                OFFSET  -0.116353  -0.002500   0.000000
                            }
                        }
                    }
                }
            }
            JOINT lTorso_Clavicle
            {
                OFFSET   0.001000   0.157500   0.000000
                CHANNELS 3 Xrotation Yrotation Zrotation
                JOINT lShoulder
                {
                    OFFSET   0.117647   0.000000   0.000000
                    CHANNELS 3 Xrotation Yrotation Zrotation
                    JOINT lElbow
                    {
                        OFFSET   0.245000   0.000000   0.000000
                        CHANNELS 3 Xrotation Yrotation Zrotation
                        JOINT lWrist
                        {
                            OFFSET   0.240000   0.000000   0.000000
                            CHANNELS 3 Xrotation Yrotation Zrotation
                            End Site
                            {
                                OFFSET   0.116353  -0.002500   0.000000
                            }
                        }
                    }
                }
            }
        }
    }
    JOINT rHip
    {
        OFFSET  -0.100000  -0.051395   0.000000
        CHANNELS 3 Xrotation Yrotation Zrotation
        JOINT rKnee
        {
            OFFSET   0.000000  -0.410000   0.000000
            CHANNELS 3 Xrotation Yrotation Zrotation
            JOINT rAnkle
            {
                OFFSET   0.000000  -0.390000   0.000000
                CHANNELS 3 Xrotation Yrotation Zrotation
                JOINT rToeJoint
                {
                    OFFSET   0.000000  -0.050000   0.130000
                    CHANNELS 3 Xrotation Yrotation Zrotation
                    End Site
                    {
                        OFFSET  -0.010000   0.002000   0.060000
                    }
                }
            }
        }
    }
    JOINT lHip
    {
        OFFSET   0.100000  -0.051395   0.000000
        CHANNELS 3 Xrotation Yrotation Zrotation
        JOINT lKnee
        {
            OFFSET   0.000000  -0.410000   0.000000
            CHANNELS 3 Xrotation Yrotation Zrotation
            JOINT lAnkle
            {
                OFFSET   0.000000  -0.390000   0.000000
                CHANNELS 3 Xrotation Yrotation Zrotation
                JOINT lToeJoint
                {
                    OFFSET   0.000000  -0.050000   0.130000
                    CHANNELS 3 Xrotation Yrotation Zrotation
                    End Site
                    {
                        OFFSET   0.010000   0.002000   0.060000
                    }
                }
            }
        }
    }
}
MOTION
Frames: 14
Frame Time:   0.008333
 -2.376719   0.925631   3.975860   0.000000   0.000000   0.000000   0.000000   0.000000   0.000000   0.000000   0.000000   0.000000   0.000000   0.000000   0.000000   0.000000   0.000000   0.000000   0.000000   0.000000   0.000000   0.000000   0.000000   0.000000   0.000000   0.000000   0.000000   0.000000   0.000000   0.000000   0.000000   0.000000   0.000000   0.000000   0.000000   0.000000   0.000000   0.000000   0.000000   0.000000   0.000000   0.000000   0.000000   0.000000   0.000000   0.000000   0.000000   0.000000   0.000000   0.000000   0.000000   0.000000   0.000000   0.000000   0.000000   0.000000   0.000000   0.000000   0.000000   0.000000   0.000000   0.000000   0.000000
 -2.376578   0.926273   3.976048  -0.355055  -0.013404  -0.014421   0.327775   0.078501   0.043247   0.164989  -0.175055   0.002876  -0.164974   0.142192   0.024384   0.200284  -0.217514   0.386492   0.805221   0.299502   2.034423   0.016183   0.752213  -0.007595   0.426741  -0.417181  -2.721013   0.232126   0.247365  -0.575325   0.989989  -0.055998  -1.954632   0.013438  -0.614216   0.007349   0.467247   0.200063   2.809401   0.153728   0.202969  -0.124808   0.885133   0.001089   0.001454  -0.913110  -0.081851   0.020240  -0.244500  -0.000250  -0.000232   0.204711  -0.155084   0.134682   0.651072  -0.000690  -0.000953  -0.808670   0.001247  -0.036945   0.355329  -0.000257  -0.000520
 -2.376413   0.927359   3.976379  -0.747920  -0.023694  -0.027471   0.630354   0.148391   0.092288   0.365062  -0.348834   0.006375  -0.307244   0.276355   0.056640   0.397144  -0.379344   1.504565   1.582688   0.670562   4.655300   0.037573   1.489438  -0.013138   0.883640  -0.604188  -4.696896   0.465879   0.442753  -1.909087   1.958943  -0.178209  -4.526035   0.031064  -1.210432   0.012791   0.973481   0.246595   4.853372   0.363352   0.398074  -0.358136   1.842268   0.002994   0.002632  -1.766148  -0.159069   0.037526  -0.515515  -0.000738  -0.000447   0.444544  -0.306216   0.372133   1.356874  -0.001967  -0.001721  -1.565139   0.002446  -0.071284   0.644011  -0.000689  -0.000819
 -2.376247   0.928456   3.976822  -1.119975  -0.037758  -0.037785   0.892691   0.213722   0.138580   0.543596  -0.511435   0.007509  -0.440328   0.401244   0.090700   0.582591  -0.493046   3.069254   2.324796   1.100421   7.660633   0.058596   2.187385  -0.016655   1.326997  -0.690718  -5.824711   0.687716   0.586971  -3.692451   2.900930  -0.370760  -7.498110   0.048415  -1.775348   0.016440   1.465657   0.218097   6.022198   0.589317   0.576566  -0.678898   2.763836   0.005154   0.003262  -2.561450  -0.232698   0.051966  -0.768329  -0.001286  -0.000568   0.678759  -0.443093   0.693391   2.033106  -0.003460  -0.002186  -2.270996   0.005294  -0.102657   0.902627  -0.001191  -0.000982
 -2.376087   0.929256   3.977354  -1.461741  -0.059817  -0.046238   1.119821   0.276285   0.179841   0.694205  -0.662046   0.005682  -0.567897   0.517739   0.124201   0.757509  -0.572832   4.884287   3.030958   1.584945  10.922741   0.076739   2.844442  -0.018680   1.754339  -0.720423  -6.324714   0.896153   0.694007  -5.720478   3.816698  -0.632422 -10.735459   0.063458  -2.308586   0.018767   1.941140   0.138929   6.547364   0.819967   0.739510  -1.068272   3.633493   0.007247   0.003421  -3.304079  -0.302754   0.063946  -1.005957  -0.001827  -0.000614   0.899690  -0.566780   1.082744   2.667011  -0.004937  -0.002424  -2.930475   0.009514  -0.131241   1.133061  -0.001671  -0.001057
 -2.375976   0.929515   3.977961  -1.774057  -0.090741  -0.050974   1.317561   0.336889   0.208805   0.820442  -0.800681  -0.012997  -0.689644   0.626332   0.160303   0.922758  -0.630692   6.825512   3.699863   2.119083  14.359216   0.090973   3.460807  -0.019644   2.164963  -0.715046  -6.395194   1.091818   0.776345  -7.905994   4.662644  -0.944802 -14.005545   0.075058  -2.811052   0.019947   2.400359   0.017957   6.567909   1.051364   0.888340  -1.509531   4.450979   0.009075   0.003242  -3.997723  -0.369255   0.073753  -1.229309  -0.002310  -0.000608   1.106802  -0.678989   1.526879   3.259113  -0.006289  -0.002502  -3.546685   0.014684  -0.157329   1.338641  -0.002089  -0.001074
 -2.375940   0.929052   3.978626  -2.059816  -0.129221  -0.052308   1.490705   0.396001   0.221127   0.926826  -0.927676  -0.051440  -0.804882   0.727501   0.196201   1.079276  -0.675544   8.806458   4.329962   2.697551  17.911658   0.101131   4.037396  -0.019874   2.558220  -0.689349  -6.187371   1.275413   0.843710 -10.153436   5.432062  -1.292279 -17.203635   0.082992  -3.283208   0.020267   2.841217  -0.132490   6.252184   1.281637   1.024353  -1.987327   5.218873   0.010549   0.002850  -4.645542  -0.432172   0.081710  -1.438232  -0.002705  -0.000568   1.300778  -0.781193   2.015064   3.812147  -0.007451  -0.002465  -4.122355   0.020530  -0.181127   1.522804  -0.002427  -0.001053
 -2.375903   0.927101   3.978740  -2.077828  -0.205310  -0.066612   1.523659   0.458963   0.281938   0.967822  -1.036861  -0.134011  -1.082592   0.691821   0.148562   1.296434  -0.553384  10.222545   5.031046   3.250973  21.165555   0.110050   4.732986  -0.022441   2.893237  -0.628055  -4.769998   1.516595   0.917328 -11.561789   6.028265  -1.685131 -20.372716   0.088432  -3.818223   0.020896   3.207686  -0.407924   4.847643   1.215178   0.920245  -2.411207   5.748680   0.010397   0.001152  -4.929808  -0.493725   0.312124  -1.380671  -0.002057  -0.000577   1.233970  -0.737501   2.464810   3.909276  -0.006337  -0.001959  -4.439532   0.000509  -0.192313   1.720629  -0.002686  -0.000903
 -2.375869   0.923904   3.978544  -2.059066  -0.284409  -0.084028   1.602646   0.526143   0.343790   1.003141  -1.126168  -0.208773  -1.356730   0.652114   0.092620   1.475436  -0.383919  11.336574   5.646005   3.832978  24.056676   0.112160   5.397248  -0.024248   3.228471  -0.481042  -3.460350   1.727655   0.955530 -12.637977   6.559250  -2.091053 -23.172520   0.088589  -4.325864   0.021096   3.557678  -0.741042   3.568008   1.106869   0.810787  -2.788452   6.189697   0.009758  -0.000047  -5.193398  -0.554253   0.526960  -1.302078  -0.001519  -0.000635   1.085235  -0.693668   2.867102   3.905022  -0.005056  -0.001566  -4.738588  -0.017506  -0.202764   1.906475  -0.002767  -0.000778
 -2.375827   0.919604   3.978186  -2.033982  -0.358555  -0.103752   1.715463   0.598945   0.406093   1.053686  -1.198528  -0.271509  -1.608416   0.614808   0.037954   1.620800  -0.193856  12.231728   6.183734   4.420749  26.647142   0.109851   6.026179  -0.025287   3.553526  -0.292582  -2.407329   1.911749   0.971724 -13.481897   7.032446  -2.497178 -25.667351   0.085433  -4.803345   0.020827   3.890295  -1.081046   2.563449   0.996518   0.708484  -3.123161   6.583980   0.008949  -0.000854  -5.439927  -0.611669   0.727249  -1.229121  -0.001116  -0.000661   0.891157  -0.655387   3.223446   3.866105  -0.003928  -0.001253  -5.019134  -0.034594  -0.212757   2.075421  -0.002705  -0.000671
 -2.375798   0.919553   3.978183  -2.141304  -0.340989   0.032674   1.896860   0.644310   0.340505   1.166999  -1.282279  -0.376424  -1.832747   0.578964  -0.018449   1.749576   0.000192  13.292844   6.654842   4.999967  29.104188   0.106565   6.607529  -0.025521   3.863421  -0.148594  -1.614727   2.066931   0.960332 -14.443212   7.448115  -2.908441 -27.994531   0.081700  -5.244770   0.019960   4.205035  -1.354482   1.858110   0.891478   0.671838  -3.299675   7.029889   0.007303  -0.000880  -5.609584  -0.576073   1.093702  -1.035968  -0.001441  -0.000531   0.724525  -0.534346   3.100173   4.327418  -0.003173  -0.000344  -4.709177   0.020404  -0.375079   2.297551  -0.001873  -0.000127
 -2.375838   0.919606   3.978350  -2.186205  -0.353990   0.184784   2.010153   0.718272   0.284968   1.249277  -1.338341  -0.484169  -2.037175   0.546953  -0.077616   1.871649   0.174083  14.129122   7.073836   5.559850  31.378098   0.101131   7.159122  -0.025099   4.159550   0.044444  -0.750333   2.223067   0.972938 -15.189692   7.828501  -3.295177 -30.149057   0.076475  -5.661091   0.018656   4.503836  -1.660143   1.092647   0.773890   0.591421  -3.481794   7.385213   0.005894  -0.001069  -5.801570  -0.625404   1.252188  -0.951001  -0.001247  -0.000537   0.638704  -0.472523   2.947147   4.602217  -0.002531  -0.000123  -4.758669   0.011170  -0.413244   2.492961  -0.001432  -0.000014
 -2.375981   0.919662   3.978546  -2.191075  -0.345087   0.318606   2.105603   0.792031   0.257760   1.309031  -1.383166  -0.574567  -2.233278   0.517166  -0.132404   1.980314   0.335963  14.817473   7.445954   6.091715  33.439209   0.094227   7.673987  -0.024272   4.440689   0.238275   0.005575   2.371452   0.992934 -15.800023   8.175209  -3.656380 -32.103982   0.070269  -6.046585   0.017115   4.785609  -1.946385   0.427676   0.645321   0.512013  -3.634622   7.689814   0.004737  -0.001095  -5.988829  -0.673770   1.397630  -0.879116  -0.001077  -0.000509   0.560304  -0.425270   2.820642   4.788569  -0.002030   0.000010  -4.850741  -0.002407  -0.441430   2.643118  -0.001117   0.000054
 -2.376344   0.919788   3.978728  -2.159308  -0.316055   0.405445   2.241210   0.858220   0.172465   1.292715  -1.360005  -0.554716  -2.396037   0.435322  -0.180607   2.040885   0.379140  15.108669   7.752456   6.596641  35.035459   0.084811   8.189536  -0.023044   4.656754   0.561226   1.380484   2.512981   1.066726 -15.994319   8.375656  -4.031654 -33.720178   0.065984  -6.624684   0.015796   5.029954  -2.191426  -0.772005   0.601621   0.386039  -3.718824   7.742873   0.003782  -0.000924  -6.082267  -0.649959   1.493540  -0.688412  -0.001030  -0.000527   0.538249  -0.381836   2.759496   4.776796  -0.001622  -0.000000  -4.861795  -0.003958  -0.453147   2.744497  -0.000902   0.000109
